<?xml version="1.0" encoding="UTF-8"?>
<svg width="512" height="512" viewBox="0 0 512 512" fill="none" xmlns="http://www.w3.org/2000/svg" role="img" aria-labelledby="titleV2 descV2">
  <title id="titleV2">Knight Morphers Logo (Alternate)</title>
  <desc id="descV2">Stylized chess knight head with integrated circuitry patterns, representing strategy and technology. Colors are black, red, and grey.</desc>
  <defs>
    <linearGradient id="grad-red-v2" x1="0%" y1="0%" x2="100%" y2="100%">
      <stop offset="0%" stop-color="#ef4444"/>
      <stop offset="100%" stop-color="#b91c1c"/>
    </linearGradient>
    <linearGradient id="grad-grey-v2" x1="0%" y1="0%" x2="100%" y2="100%">
      <stop offset="0%" stop-color="#4b5563"/>
      <stop offset="100%" stop-color="#1f2937"/>
    </linearGradient>
    <filter id="glow-v2" x="-50%" y="-50%" width="200%" height="200%">
      <feGaussianBlur stdDeviation="8" result="blur"/>
      <feColorMatrix in="blur" type="matrix" values="1 0 0 0 0  0 0.1 0 0 0  0 0 0.1 0 0  0 0 0 0.5 0" result="glow"/>
      <feMerge>
        <feMergeNode in="glow"/>
        <feMergeNode in="SourceGraphic"/>
      </feMerge>
    </filter>
  </defs>
  
  <!-- Background -->
  <rect width="512" height="512" rx="96" fill="#0a0a0a"/>
  
  <!-- Main Knight Shape -->
  <g filter="url(#glow-v2)">
    <path d="M220.4,84.5c-2.3-1.8-5.4-1.8-7.7,0L104,183.3c-1.8,1.5-2.5,3.9-1.8,6.1l24.4,78.5c1.1,3.5,4.2,6.1,7.9,6.1h64.2c4.4,0,8-3.6,8-8v-48.8c0-4.4-3.6-8-8-8h-33.1c-3.5,0-6.6-2.2-7.7-5.4l-12.2-39.2l84.5,70.4c2.3,1.8,5.4,1.8,7.7,0l108.7-86.2c1.8-1.5,2.5-3.9,1.8-6.1l-24.4-78.5c-1.1-3.5-4.2-6.1-7.9-6.1H220.4z" fill="url(#grad-grey-v2)" stroke="#6b7280" stroke-width="2"/>
    <path d="M256,288.5v139c0,4.4-3.6,8-8,8h-48.8c-4.4,0-8-3.6-8-8V296.5c0-4.4,3.6-8,8-8h40.8C252.4,288.5,256,292.1,256,288.5z" fill="#374151"/>
  </g>

  <!-- Red Circuitry Accents -->
  <g stroke="url(#grad-red-v2)" stroke-width="4" stroke-linecap="round">
    <path d="M192,288.5v-40c0-8.8,7.2-16,16-16h48" opacity="0.8"/>
    <path d="M130,192.5l40,32" opacity="0.9"/>
    <path d="M256,232.5h48c4.4,0,8-3.6,8-8v-40" opacity="0.7"/>
    <path d="M320,144.5l-24,20" opacity="0.8"/>
    <path d="M200,320.5h56" opacity="0.9"/>
  </g>

  <!-- Glowing Eye -->
  <circle cx="340" cy="130" r="10" fill="#ef4444"/>
  <circle cx="340" cy="130" r="5" fill="#fca5a5"/>

</svg>
